<?xml version="1.0" encoding="UTF-8"?>
<!DOCTYPE svg PUBLIC "-//W3C//DTD SVG 1.1//EN" "http://www.w3.org/Graphics/SVG/1.1/DTD/svg11.dtd">
<svg xmlns="http://www.w3.org/2000/svg" version="1.1" width="512px" height="512px" style="shape-rendering:geometricPrecision; text-rendering:geometricPrecision; image-rendering:optimizeQuality; fill-rule:evenodd; clip-rule:evenodd" xmlns:xlink="http://www.w3.org/1999/xlink">
<g><path style="opacity:0.958" fill="#000000" d="M 55.5,-0.5 C 188.833,-0.5 322.167,-0.5 455.5,-0.5C 485.842,6.50889 504.509,25.1756 511.5,55.5C 511.5,188.833 511.5,322.167 511.5,455.5C 504.509,485.824 485.842,504.491 455.5,511.5C 435.167,511.5 414.833,511.5 394.5,511.5C 388.511,504.944 389.511,499.778 397.5,496C 416.167,495.667 434.833,495.333 453.5,495C 476,489.833 489.833,476 495,453.5C 496.149,387.519 496.649,321.519 496.5,255.5C 496.333,192.833 496.167,130.167 496,67.5C 495.234,48.4588 487.067,33.6254 471.5,23C 465.883,19.6831 459.883,17.3497 453.5,16C 321.5,15.3333 189.5,15.3333 57.5,16C 36.6974,20.6454 23.1974,33.1454 17,53.5C 15.9393,58.1042 15.2727,62.7709 15,67.5C 14.0178,196.185 14.3511,324.852 16,453.5C 21.1667,476 35,489.833 57.5,495C 157.833,495.333 258.167,495.667 358.5,496C 360.848,496.346 362.681,497.513 364,499.5C 364.667,502.5 364.667,505.5 364,508.5C 362.855,509.636 361.688,510.636 360.5,511.5C 258.833,511.5 157.167,511.5 55.5,511.5C 25.1578,504.491 6.49111,485.824 -0.5,455.5C -0.5,322.167 -0.5,188.833 -0.5,55.5C 6.49111,25.1756 25.1578,6.50889 55.5,-0.5 Z"/></g>
<g><path style="opacity:0.967" fill="#040101" d="M 133.5,273.5 C 134.315,274.837 135.482,275.837 137,276.5C 137.923,278.034 138.423,279.701 138.5,281.5C 132.148,299.316 129.648,317.649 131,336.5C 131.423,345.262 133.923,353.262 138.5,360.5C 198.515,279.304 267.182,205.804 344.5,140C 350.387,137.013 354.387,138.513 356.5,144.5C 356.834,147.188 356.168,149.521 354.5,151.5C 276.652,216 208.319,289 149.5,370.5C 154.637,373.869 160.304,375.535 166.5,375.5C 193.475,377.338 218.475,370.838 241.5,356C 235.616,351.943 229.616,348.11 223.5,344.5C 218.987,341.091 218.32,336.924 221.5,332C 223.715,330.956 226.048,330.29 228.5,330C 234.523,329.641 240.523,329.141 246.5,328.5C 247.167,328.5 247.5,328.167 247.5,327.5C 258.555,326.861 269.555,325.694 280.5,324C 303.548,300.966 323.548,275.633 340.5,248C 331.358,245.12 322.358,241.953 313.5,238.5C 313.167,238.5 312.833,238.5 312.5,238.5C 308.498,228.866 311.831,223.866 322.5,223.5C 334.933,219.933 347.433,216.6 360,213.5C 373.721,189.005 384.721,163.338 393,136.5C 394.874,129.596 395.541,122.596 395,115.5C 391.273,107.05 384.773,103.384 375.5,104.5C 368.257,104.778 361.257,105.778 354.5,107.5C 328.582,114.956 303.916,125.456 280.5,139C 274.776,153.78 268.776,168.447 262.5,183C 258.879,185.09 255.379,184.923 252,182.5C 250.304,174.78 248.47,167.113 246.5,159.5C 235.418,166.416 224.751,173.916 214.5,182C 211.865,183.961 210.031,186.461 209,189.5C 206.994,208.218 204.66,226.884 202,245.5C 198.627,248.886 194.794,249.386 190.5,247C 185.372,238.574 179.872,230.408 174,222.5C 166.116,232.049 158.616,241.882 151.5,252C 148.808,252.43 146.141,252.263 143.5,251.5C 139.696,247.488 139.529,243.155 143,238.5C 151.179,225.662 160.679,213.828 171.5,203C 174.634,202.21 177.634,202.543 180.5,204C 183.667,208.5 186.833,213 190,217.5C 191.958,205.214 193.625,192.881 195,180.5C 198.833,175.333 203.333,170.833 208.5,167C 222.45,156.109 237.283,146.609 253,138.5C 257.653,139.153 260.32,141.82 261,146.5C 263.113,140.156 265.613,133.989 268.5,128C 292.59,113.956 317.924,102.623 344.5,94C 358.583,89.5086 372.916,88.1752 387.5,90C 399.555,92.943 407.055,100.443 410,112.5C 411.182,129.114 408.515,145.114 402,160.5C 393.06,182.377 383.06,203.71 372,224.5C 370.786,226.049 369.286,227.215 367.5,228C 360.833,229.667 354.167,231.333 347.5,233C 359.529,235.554 362.362,242.054 356,252.5C 336.974,284.21 314.141,313.043 287.5,339C 276.224,340.728 264.891,342.061 253.5,343C 253.167,343.333 252.833,343.667 252.5,344C 256.904,345.777 260.404,348.61 263,352.5C 263.743,355.783 263.076,358.783 261,361.5C 230.324,384.836 195.824,394.336 157.5,390C 151.724,388.293 146.057,386.626 140.5,385C 128.918,402.162 117.585,419.496 106.5,437C 97.3654,439.537 93.5321,436.037 95,426.5C 105.043,408.238 116.21,390.738 128.5,374C 121.189,364.072 117.022,352.906 116,340.5C 114.239,319.256 116.905,298.59 124,278.5C 125.945,274.61 129.112,272.943 133.5,273.5 Z"/></g>
<g><path style="opacity:1" fill="#bc0e16" d="M 322.5,223.5 C 329.967,207.897 337.467,192.23 345,176.5C 348.664,168.338 351.831,160.005 354.5,151.5C 356.168,149.521 356.834,147.188 356.5,144.5C 360.888,134.264 362.055,123.598 360,112.5C 359.428,109.293 357.595,107.626 354.5,107.5C 361.257,105.778 368.257,104.778 375.5,104.5C 384.773,103.384 391.273,107.05 395,115.5C 395.541,122.596 394.874,129.596 393,136.5C 384.721,163.338 373.721,189.005 360,213.5C 347.433,216.6 334.933,219.933 322.5,223.5 Z"/></g>
<g><path style="opacity:1" fill="#fd0105" d="M 354.5,107.5 C 357.595,107.626 359.428,109.293 360,112.5C 362.055,123.598 360.888,134.264 356.5,144.5C 354.387,138.513 350.387,137.013 344.5,140C 267.182,205.804 198.515,279.304 138.5,360.5C 133.923,353.262 131.423,345.262 131,336.5C 129.648,317.649 132.148,299.316 138.5,281.5C 138.423,279.701 137.923,278.034 137,276.5C 135.482,275.837 134.315,274.837 133.5,273.5C 136.796,266.235 140.129,258.902 143.5,251.5C 146.141,252.263 148.808,252.43 151.5,252C 158.616,241.882 166.116,232.049 174,222.5C 179.872,230.408 185.372,238.574 190.5,247C 194.794,249.386 198.627,248.886 202,245.5C 204.66,226.884 206.994,208.218 209,189.5C 210.031,186.461 211.865,183.961 214.5,182C 224.751,173.916 235.418,166.416 246.5,159.5C 248.47,167.113 250.304,174.78 252,182.5C 255.379,184.923 258.879,185.09 262.5,183C 268.776,168.447 274.776,153.78 280.5,139C 303.916,125.456 328.582,114.956 354.5,107.5 Z"/></g>
<g><path style="opacity:1" fill="#fe0005" d="M 354.5,151.5 C 351.831,160.005 348.664,168.338 345,176.5C 337.467,192.23 329.967,207.897 322.5,223.5C 311.831,223.866 308.498,228.866 312.5,238.5C 294.343,270.172 272.51,299.172 247,325.5C 246.517,326.448 246.351,327.448 246.5,328.5C 240.523,329.141 234.523,329.641 228.5,330C 226.048,330.29 223.715,330.956 221.5,332C 218.32,336.924 218.987,341.091 223.5,344.5C 222.457,347.056 220.79,349.223 218.5,351C 206.286,360.612 192.953,368.445 178.5,374.5C 174.555,375.491 170.555,375.824 166.5,375.5C 160.304,375.535 154.637,373.869 149.5,370.5C 208.319,289 276.652,216 354.5,151.5 Z"/></g>
<g><path style="opacity:1" fill="#ba0e16" d="M 313.5,238.5 C 322.358,241.953 331.358,245.12 340.5,248C 323.548,275.633 303.548,300.966 280.5,324C 269.555,325.694 258.555,326.861 247.5,327.5C 273.38,300.633 295.38,270.966 313.5,238.5 Z"/></g>
<g><path style="opacity:1" fill="#db1019" d="M 312.5,238.5 C 312.833,238.5 313.167,238.5 313.5,238.5C 295.38,270.966 273.38,300.633 247.5,327.5C 247.5,328.167 247.167,328.5 246.5,328.5C 246.351,327.448 246.517,326.448 247,325.5C 272.51,299.172 294.343,270.172 312.5,238.5 Z"/></g>
<g><path style="opacity:1" fill="#be0f17" d="M 223.5,344.5 C 229.616,348.11 235.616,351.943 241.5,356C 218.475,370.838 193.475,377.338 166.5,375.5C 170.555,375.824 174.555,375.491 178.5,374.5C 192.953,368.445 206.286,360.612 218.5,351C 220.79,349.223 222.457,347.056 223.5,344.5 Z"/></g>
</svg>
